<svg xmlns="http://www.w3.org/2000/svg" viewBox="0 0 1200 675" role="img" aria-labelledby="title desc">
  <title id="title">Fuel Master feature illustration</title>
  <desc id="desc">A vector close-up of local Power Master import, color-coded demand, fueling summary cards, and bottle and gel allocation.</desc>
  <defs><linearGradient id="bg" x1="0" y1="0" x2="1" y2="1"><stop stop-color="#004d40"/><stop offset="1" stop-color="#263238"/></linearGradient><filter id="s"><feDropShadow dx="0" dy="12" stdDeviation="16" flood-opacity=".23"/></filter></defs>
  <rect width="1200" height="675" rx="28" fill="url(#bg)"/><circle cx="1090" cy="570" r="210" fill="#00acc1" opacity=".11"/>
  <g filter="url(#s)"><rect x="58" y="58" width="1084" height="559" rx="20" fill="#fff"/>
    <rect x="82" y="82" width="1036" height="102" rx="13" fill="#f5f5f5" stroke="#cfd8dc"/>
    <rect x="100" y="101" width="7" height="28" fill="#006064"/><text x="121" y="123" font-family="Arial" font-size="21" font-weight="900" fill="#455a64">LOAD POWER PARAMETERS</text>
    <rect x="100" y="141" width="260" height="28" rx="6" fill="#e0f2f1"/><circle cx="116" cy="155" r="7" fill="#00897b"/><text x="133" y="160" font-family="Arial" font-size="13" font-weight="800" fill="#00695c">Latest local Power Master plan</text>
    <rect x="897" y="131" width="197" height="38" rx="7" fill="#006064"/><text x="931" y="155" font-family="Arial" font-size="13" font-weight="800" fill="#fff">USE LOCAL PLAN</text>
    <g transform="translate(82 207)">
      <rect width="478" height="182" rx="13" fill="#f5f5f5" stroke="#cfd8dc"/><text x="18" y="32" font-family="Arial" font-size="14" font-weight="900" fill="#455a64">DEMAND AND PROFILE</text>
      <text x="18" y="66" font-family="Arial" font-size="12" font-weight="800" fill="#455a64">AEROBIC</text><rect x="18" y="77" width="126" height="44" rx="7" fill="#e3f2fd" stroke="#1e88e5" stroke-width="2"/><text x="31" y="105" font-family="Arial" font-size="19" font-weight="900" fill="#1565c0">184.0</text><rect x="18" y="137" width="126" height="6" rx="3" fill="#bbdefb"/><rect x="18" y="137" width="93" height="6" rx="3" fill="#1e88e5"/><circle cx="111" cy="140" r="10" fill="#1e88e5"/>
      <text x="173" y="66" font-family="Arial" font-size="12" font-weight="800" fill="#455a64">HARD EFFORT</text><rect x="173" y="77" width="126" height="44" rx="7" fill="#fff8e1" stroke="#ffb300" stroke-width="2"/><text x="186" y="105" font-family="Arial" font-size="19" font-weight="900" fill="#f57f17">24.5</text><rect x="173" y="137" width="126" height="6" rx="3" fill="#ffecb3"/><rect x="173" y="137" width="62" height="6" rx="3" fill="#ffb300"/><circle cx="235" cy="140" r="10" fill="#ffb300"/>
      <text x="328" y="66" font-family="Arial" font-size="12" font-weight="800" fill="#455a64">SPRINT</text><rect x="328" y="77" width="126" height="44" rx="7" fill="#ffebee" stroke="#ef5350" stroke-width="2"/><text x="341" y="105" font-family="Arial" font-size="19" font-weight="900" fill="#c62828">4.2</text><rect x="328" y="137" width="126" height="6" rx="3" fill="#ffcdd2"/><rect x="328" y="137" width="34" height="6" rx="3" fill="#ef5350"/><circle cx="362" cy="140" r="10" fill="#ef5350"/>
    </g>
    <g transform="translate(585 207)">
      <rect width="533" height="182" rx="13" fill="#f5f5f5" stroke="#cfd8dc"/><text x="18" y="32" font-family="Arial" font-size="14" font-weight="900" fill="#455a64">RIDE PLAN</text>
      <g font-family="Arial"><rect x="18" y="50" width="153" height="54" rx="7" fill="#e0f7fa" stroke-left="#00acc1"/><text x="30" y="70" font-size="11" fill="#455a64">FUEL TARGET</text><text x="30" y="93" font-size="21" font-weight="900" fill="#006064">85 g/hr</text><rect x="188" y="50" width="153" height="54" rx="7" fill="#e0f7fa"/><text x="200" y="70" font-size="11" fill="#455a64">RIDE TOTAL</text><text x="200" y="93" font-size="21" font-weight="900" fill="#006064">255 g</text><rect x="358" y="50" width="153" height="54" rx="7" fill="#e0f2f1"/><text x="370" y="70" font-size="11" fill="#455a64">ALIGNMENT</text><text x="370" y="93" font-size="21" font-weight="900" fill="#00796b">+0.3%</text>
      <rect x="18" y="116" width="238" height="50" rx="7" fill="#fff" stroke="#cfd8dc"/><text x="30" y="136" font-size="11" fill="#455a64">BOTTLES</text><text x="30" y="157" font-size="18" font-weight="900" fill="#263238">180 g across 2</text><rect x="273" y="116" width="238" height="50" rx="7" fill="#fff" stroke="#cfd8dc"/><text x="285" y="136" font-size="11" fill="#455a64">GEL</text><text x="285" y="157" font-size="18" font-weight="900" fill="#263238">75 g · 2 stops</text></g>
    </g>
    <g transform="translate(82 414)">
      <rect width="1036" height="179" rx="13" fill="#fffde7" stroke="#fff59d"/><text x="20" y="34" font-family="Arial" font-size="14" font-weight="900" fill="#5d4037">PRACTICAL CARRY PLAN</text>
      <g transform="translate(34 54)"><path d="M18 0h46v18H18zM11 18h60v82a15 15 0 0 1-15 15H26a15 15 0 0 1-15-15V18Z" fill="#00acc1"/><path d="M20 44h42v48H20z" fill="#e0f7fa"/><text x="41" y="73" text-anchor="middle" font-family="Arial" font-size="14" font-weight="900" fill="#006064">90g</text></g>
      <g transform="translate(134 54)"><path d="M18 0h46v18H18zM11 18h60v82a15 15 0 0 1-15 15H26a15 15 0 0 1-15-15V18Z" fill="#00acc1"/><path d="M20 44h42v48H20z" fill="#e0f7fa"/><text x="41" y="73" text-anchor="middle" font-family="Arial" font-size="14" font-weight="900" fill="#006064">90g</text></g>
      <g transform="translate(245 63)"><path d="M18 0h42v15H18zM10 15h58v83a13 13 0 0 1-13 13H23a13 13 0 0 1-13-13V15Z" fill="#ad1457"/><text x="39" y="69" text-anchor="middle" font-family="Arial" font-size="14" font-weight="900" fill="#fff">75g</text></g>
      <path d="M356 86h268" stroke="#cfd8dc" stroke-width="3" stroke-linecap="round"/><circle cx="414" cy="86" r="19" fill="#006064"/><circle cx="566" cy="86" r="19" fill="#ad1457"/><text x="388" y="129" font-family="Arial" font-size="12" font-weight="800" fill="#455a64">BOTTLES</text><text x="545" y="129" font-family="Arial" font-size="12" font-weight="800" fill="#455a64">GEL</text>
      <text x="687" y="72" font-family="Arial" font-size="13" font-weight="800" fill="#5d4037">MIXING INSTRUCTIONS</text><text x="687" y="101" font-family="Arial" font-size="18" font-weight="900" fill="#263238">Measured from your inventory</text><text x="687" y="128" font-family="Arial" font-size="13" fill="#546e7a">Bottle ratios, gel stops, water guidance, and spoon sizes.</text>
    </g>
  </g>
</svg>
