<svg xmlns="http://www.w3.org/2000/svg" viewBox="0 0 1200 675" role="img" aria-labelledby="title desc">
  <title id="title">Power Master feature illustration</title>
  <desc id="desc">A vector close-up of condition-specific power rows, target and range modes, sliders, and the stem dashboard preview.</desc>
  <defs>
    <linearGradient id="bg" x1="0" y1="0" x2="1" y2="1"><stop stop-color="#263238"/><stop offset="1" stop-color="#102027"/></linearGradient>
    <filter id="shadow" x="-20%" y="-20%" width="140%" height="140%"><feDropShadow dx="0" dy="12" stdDeviation="16" flood-opacity=".24"/></filter>
  </defs>
  <rect width="1200" height="675" rx="28" fill="url(#bg)"/>
  <circle cx="1060" cy="86" r="150" fill="#ef6c00" opacity=".12"/><circle cx="104" cy="608" r="190" fill="#00acc1" opacity=".1"/>
  <g filter="url(#shadow)">
    <rect x="55" y="58" width="740" height="559" rx="18" fill="#fff"/>
    <rect x="55" y="58" width="740" height="62" rx="18" fill="#f5f5f5"/>
    <rect x="55" y="102" width="740" height="18" fill="#f5f5f5"/>
    <rect x="76" y="77" width="7" height="26" fill="#006064"/><text x="98" y="98" font-family="Arial,sans-serif" font-size="22" font-weight="800" fill="#455a64">POWER TARGETS</text>
    <g font-family="Arial,sans-serif" font-size="13" font-weight="700" fill="#546e7a">
      <text x="100" y="153">LABEL</text><text x="274" y="153">TERRAIN</text><text x="404" y="153">POWER</text><text x="548" y="153">CADENCE</text>
    </g>
    <g transform="translate(76 168)">
      <rect width="698" height="125" rx="12" fill="#fafafa" stroke="#cfd8dc"/>
      <circle cx="22" cy="30" r="3" fill="#78909c"/><circle cx="22" cy="42" r="3" fill="#78909c"/><circle cx="22" cy="54" r="3" fill="#78909c"/>
      <rect x="47" y="20" width="154" height="42" rx="7" fill="#fff" stroke="#b0bec5"/><text x="61" y="47" font-family="Arial" font-size="18" font-weight="800" fill="#263238">XWIND</text>
      <rect x="214" y="20" width="116" height="42" rx="7" fill="#fff" stroke="#b0bec5"/><text x="228" y="47" font-family="Arial" font-size="17" font-weight="700" fill="#263238">flat</text>
      <rect x="343" y="20" width="126" height="42" rx="7" fill="#e3f2fd" stroke="#1976d2"/><text x="357" y="47" font-family="Arial" font-size="16" font-weight="800" fill="#0d47a1">RANGE</text>
      <rect x="482" y="20" width="124" height="42" rx="7" fill="#fff" stroke="#b0bec5"/><text x="496" y="47" font-family="Arial" font-size="17" font-weight="700" fill="#263238">82–90</text>
      <rect x="47" y="75" width="76" height="36" rx="6" fill="#fff" stroke="#b0bec5"/><text x="67" y="99" font-family="Arial" font-size="17" font-weight="800" fill="#263238">197</text>
      <rect x="133" y="89" width="116" height="6" rx="3" fill="#cfd8dc"/><rect x="133" y="89" width="66" height="6" rx="3" fill="#ef6c00"/><circle cx="199" cy="92" r="11" fill="#ef6c00"/>
      <rect x="269" y="75" width="76" height="36" rx="6" fill="#fff" stroke="#b0bec5"/><text x="289" y="99" font-family="Arial" font-size="17" font-weight="800" fill="#263238">223</text>
      <rect x="355" y="89" width="116" height="6" rx="3" fill="#cfd8dc"/><rect x="355" y="89" width="79" height="6" rx="3" fill="#ef6c00"/><circle cx="434" cy="92" r="11" fill="#ef6c00"/>
      <text x="500" y="99" font-family="Arial" font-size="13" font-weight="800" fill="#546e7a">MIN / MAX</text>
    </g>
    <g transform="translate(76 310)">
      <rect width="698" height="125" rx="12" fill="#fafafa" stroke="#cfd8dc"/>
      <circle cx="22" cy="30" r="3" fill="#78909c"/><circle cx="22" cy="42" r="3" fill="#78909c"/><circle cx="22" cy="54" r="3" fill="#78909c"/>
      <rect x="47" y="20" width="154" height="42" rx="7" fill="#fff" stroke="#b0bec5"/><text x="61" y="47" font-family="Arial" font-size="18" font-weight="800" fill="#263238">4% CLM</text>
      <rect x="214" y="20" width="116" height="42" rx="7" fill="#fff" stroke="#b0bec5"/><text x="228" y="47" font-family="Arial" font-size="17" font-weight="700" fill="#263238">climb</text>
      <rect x="343" y="20" width="126" height="42" rx="7" fill="#fff3e0" stroke="#fb8c00"/><text x="357" y="47" font-family="Arial" font-size="16" font-weight="800" fill="#e65100">TARGET</text>
      <rect x="482" y="20" width="124" height="42" rx="7" fill="#fff" stroke="#b0bec5"/><text x="496" y="47" font-family="Arial" font-size="17" font-weight="700" fill="#263238">80</text>
      <rect x="47" y="75" width="76" height="36" rx="6" fill="#fff" stroke="#fb8c00"/><text x="67" y="99" font-family="Arial" font-size="17" font-weight="800" fill="#e65100">212</text>
      <rect x="133" y="89" width="265" height="6" rx="3" fill="#cfd8dc"/><rect x="133" y="89" width="174" height="6" rx="3" fill="#ef6c00"/><circle cx="307" cy="92" r="11" fill="#ef6c00"/>
      <text x="425" y="99" font-family="Arial" font-size="13" font-weight="800" fill="#546e7a">PRECISE WATTS + SLIDER</text>
    </g>
    <g transform="translate(76 455)">
      <rect width="698" height="138" rx="12" fill="#e0f7fa" stroke="#80deea"/>
      <text x="20" y="34" font-family="Arial" font-size="13" font-weight="800" fill="#006064">DURATION-WEIGHTED POWER</text><text x="20" y="69" font-family="Arial" font-size="29" font-weight="900" fill="#006064">184 W</text>
      <text x="252" y="34" font-family="Arial" font-size="13" font-weight="800" fill="#006064">ESTIMATED IF</text><text x="252" y="69" font-family="Arial" font-size="29" font-weight="900" fill="#006064">0.86</text>
      <text x="440" y="34" font-family="Arial" font-size="13" font-weight="800" fill="#006064">MOVING DURATION</text><text x="440" y="69" font-family="Arial" font-size="29" font-weight="900" fill="#006064">180 min</text>
      <path d="M20 101h638" stroke="#80deea"/><text x="20" y="124" font-family="Arial" font-size="13" fill="#455a64">Every target contributes by its assigned duration.</text>
    </g>
  </g>
  <g filter="url(#shadow)">
    <rect x="835" y="80" width="310" height="520" rx="22" fill="#eceff1" stroke="#90a4ae"/>
    <text x="864" y="119" font-family="Arial" font-size="17" font-weight="800" fill="#455a64">STEM DASHBOARD</text>
    <rect x="870" y="150" width="238" height="394" rx="11" fill="#cfd8dc"/>
    <rect x="932" y="188" width="114" height="310" fill="#fff" stroke="#455a64" stroke-dasharray="5 4"/>
    <text x="953" y="209" font-family="Arial" font-size="11" font-weight="900">AVG 184W</text>
    <g font-family="Arial" font-size="10" font-weight="800"><rect x="934" y="220" width="110" height="29" fill="#f3e5f5"/><text x="939" y="238" fill="#4a148c">XWIND</text><text x="996" y="238" fill="#4a148c">197–223</text><rect x="934" y="249" width="110" height="29" fill="#fff3e0"/><text x="939" y="267" fill="#e65100">4% CLM</text><text x="1008" y="267" fill="#e65100">212</text><rect x="934" y="278" width="110" height="29" fill="#e8f5e9"/><text x="939" y="296" fill="#1b5e20">END</text><text x="1001" y="296" fill="#1b5e20">154–171</text><rect x="934" y="307" width="110" height="29" fill="#e3f2fd"/><text x="939" y="325" fill="#0d47a1">REC</text><text x="1007" y="325" fill="#0d47a1">107</text></g>
    <circle cx="989" cy="566" r="16" fill="#006064"/><path d="m982 566 5 5 10-12" fill="none" stroke="#fff" stroke-width="3" stroke-linecap="round" stroke-linejoin="round"/>
  </g>
</svg>
