<svg xmlns="http://www.w3.org/2000/svg" viewBox="0 0 64 64" role="img" aria-labelledby="title">
  <title id="title">Velo Tools</title>
  <defs><linearGradient id="road" x1="7" y1="7" x2="57" y2="57" gradientUnits="userSpaceOnUse"><stop stop-color="#1a237e"/><stop offset="1" stop-color="#006064"/></linearGradient></defs>
  <rect width="64" height="64" rx="15" fill="url(#road)"/>
  <circle cx="16" cy="45" r="10" fill="none" stroke="#80deea" stroke-width="3.2"/>
  <circle cx="48" cy="45" r="10" fill="none" stroke="#ffb300" stroke-width="3.2"/>
  <path d="M16 45 26 27 31 45H16Zm10-18 17 4-12 14m12-14 5 14" fill="none" stroke="#fff" stroke-width="3.2" stroke-linecap="round" stroke-linejoin="round"/>
  <path d="m26 27-2-7m-5 0h10m14 11 1-4 6-1h3m-1 0v5c0 2-1 3-3 3h-1" fill="none" stroke="#fff" stroke-width="3.2" stroke-linecap="round" stroke-linejoin="round"/>
  <circle cx="31" cy="45" r="3" fill="#ffb300" stroke="#fff" stroke-width="1.2"/>
  <path d="m31 45 5 3" fill="none" stroke="#fff" stroke-width="1.8" stroke-linecap="round"/>
</svg>
